<svg id="Layer_1" data-name="Layer 1" xmlns="http://www.w3.org/2000/svg" width="22" height="22" viewBox="0 0 22 22"><title>calkulate</title><path d="M21.92,4a4,4,0,0,0-4-4H4A4,4,0,0,0,0,4V17.88a4,4,0,0,0,4,4H17.88a4,4,0,0,0,4-4ZM20.76,4v6.34H11.54V1.15h6.34A2.89,2.89,0,0,1,20.76,4ZM4,1.15h6.34v9.23H1.15V4A2.89,2.89,0,0,1,4,1.15ZM1.15,17.88V11.54h9.23v9.23H4A2.89,2.89,0,0,1,1.15,17.88Zm16.73,2.88H11.54V11.54h9.23v6.34A2.89,2.89,0,0,1,17.88,20.76Z" fill="#fff"/><polygon points="8.19 15 6.26 15 6.26 13.09 5.11 13.09 5.11 15 3.2 15 3.2 16.15 5.11 16.15 5.11 18.08 6.26 18.08 6.26 16.15 8.19 16.15 8.19 15" fill="#fff"/><rect x="3.2" y="5.39" width="4.99" height="1.15" fill="#fff"/><rect x="13.47" y="16.73" width="4.99" height="1.15" fill="#fff"/><rect x="13.47" y="14.13" width="4.99" height="1.15" fill="#fff"/><polygon points="13.79 7.33 14.59 8.13 15.98 6.78 17.33 8.13 18.14 7.33 16.78 5.97 18.14 4.61 17.33 3.78 15.98 5.13 14.59 3.78 13.79 4.61 15.14 5.97 13.79 7.33" fill="#fff"/></svg>