<svg xmlns="http://www.w3.org/2000/svg" id="Layer_1" width="232.34" height="232.34" data-name="Layer 1" viewBox="0 0 232.34 232.34">
    <title>
        Artboard 3
    </title>
    <path fill="#517FA6" d="M116.17,87.61a28.56,28.56,0,1,0,28.56,28.56A28.59,28.59,0,0,0,116.17,87.61Z" class="st1"/>
    <path fill="#517FA6" d="M185.7,78.29A31.69,31.69,0,0,0,154,46.64H78.29A31.69,31.69,0,0,0,46.64,78.29V154A31.69,31.69,0,0,0,78.29,185.7H154A31.69,31.69,0,0,0,185.7,154h0Zm-69.53,81.44a43.56,43.56,0,1,1,43.56-43.56A43.61,43.61,0,0,1,116.17,159.73Zm53.17-81.06a11,11,0,1,1,3.22-7.78A11.11,11.11,0,0,1,169.34,78.67Z" class="st1"/>
    <path fill="#517FA6" d="M116.17,0A116.14,116.14,0,1,0,232.3,116.17,116.14,116.14,0,0,0,116.17,0ZM154,200.7H78.29A46.71,46.71,0,0,1,31.64,154V78.29A46.71,46.71,0,0,1,78.29,31.64H154A46.71,46.71,0,0,1,200.7,78.29V154A46.71,46.71,0,0,1,154,200.7Z" class="st1"/>
    <path fill="#fff" d="M154,31.64H78.29A46.71,46.71,0,0,0,31.64,78.29V154A46.71,46.71,0,0,0,78.29,200.7H154A46.71,46.71,0,0,0,200.7,154V78.29A46.71,46.71,0,0,0,154,31.64Zm0,154.06H78.29A31.69,31.69,0,0,1,46.64,154V78.29A31.69,31.69,0,0,1,78.29,46.64H154A31.69,31.69,0,0,1,185.7,78.29V154h0A31.69,31.69,0,0,1,154,185.7Z"/>
    <path fill="#fff" d="M116.17,72.61a43.56,43.56,0,1,0,43.56,43.56A43.61,43.61,0,0,0,116.17,72.61Zm0,72.12a28.56,28.56,0,1,1,28.56-28.56A28.59,28.59,0,0,1,116.17,144.73Z"/>
    <path fill="#fff" d="M161.56,59.89a11,11,0,1,0,7.78,3.22A11,11,0,0,0,161.56,59.89Z"/>
</svg>
