<svg id="Layer_1" data-name="Layer 1" xmlns="http://www.w3.org/2000/svg" width="26" height="12" viewBox="0 0 26 12"><title>key</title><path d="M25.94,5.78,24.63,4.11A.38.38,0,0,0,24.35,4H10.95A5.62,5.62,0,1,0,11,8h1.12a.44.44,0,0,1,.33.11l.74.63a.17.17,0,0,0,.22,0l.68-.74a.54.54,0,0,1,.38-.16h.6a.41.41,0,0,0,.3-.11l.41-.33a.17.17,0,0,1,.22,0l1,1.07c0,.05.14.05.19,0L18,8a.17.17,0,0,1,.16,0l.79.55a.17.17,0,0,0,.22,0l1.12-1a.17.17,0,0,1,.22,0l1.37,1.18a.17.17,0,0,0,.22,0l.77-.63A.67.67,0,0,1,23.15,8h1.18a.34.34,0,0,0,.27-.14l1.31-1.67A.33.33,0,0,0,25.94,5.78ZM4,7.56A1.56,1.56,0,0,1,2.44,6,1.54,1.54,0,0,1,4,4.44,1.56,1.56,0,1,1,4,7.56Z" fill="#fff"/></svg>