<svg id="Layer_1" data-name="Layer 1" xmlns="http://www.w3.org/2000/svg" width="74" height="74" viewBox="0 0 74 74"><title>logo</title><path d="M41.79,34a4.84,4.84,0,0,0,3-1.31,3.92,3.92,0,0,0,1.11-2.9,4.06,4.06,0,0,0-1-2.78,4.28,4.28,0,0,0-2.8-1.31c-.69-.08-2.58-.12-5.79-.12H32v8.54h4.82C39.46,34.08,41.12,34,41.79,34Z" fill="#00c853"/><path d="M44,39.28a23,23,0,0,0-6.1-.5H32v9.74h6.64a30.69,30.69,0,0,0,4.68-.21A4.6,4.6,0,0,0,46,46.84a4.5,4.5,0,0,0,1.05-3.1A4.74,4.74,0,0,0,46.28,41,4.53,4.53,0,0,0,44,39.28Z" fill="#00c853"/><path d="M37.12,0a36.89,36.89,0,0,0-32,55.28L2.95,61.12,0,68.91l8.26-1,7.52-.94A36.87,36.87,0,1,0,37.12,0ZM52.18,48.29a8.56,8.56,0,0,1-2.75,3.27,9.16,9.16,0,0,1-4.31,1.5c-.66.07-2,.13-4,.17H40.7v4.58H36V53.29H31.66v4.54H27V53.29H21v-4.7h5.1v-23H21v-4.7H27v-4.9h4.7v4.9H36v-4.9h4.7v4.92h.41a28.73,28.73,0,0,1,3.75.29,8,8,0,0,1,5.74,4,7.15,7.15,0,0,1,1,3.68,7.47,7.47,0,0,1-4.43,6.84l-1,.47,1.09.32a8.38,8.38,0,0,1,4.46,2.87,7.64,7.64,0,0,1,1.55,4.76A9.57,9.57,0,0,1,52.18,48.29Z" fill="#00c853"/></svg>