<svg id="Layer_1" data-name="Layer 1" xmlns="http://www.w3.org/2000/svg" width="28" height="35" viewBox="0 0 28 35"><title>ru</title><path d="M7.44,35a3.14,3.14,0,0,1-3.07-3.12V28.36H3.07a3.1,3.1,0,0,1,0-6.21H4.38v-.43H3a2.86,2.86,0,0,1-2-.87,3.14,3.14,0,0,1,0-4.48,2.86,2.86,0,0,1,2-.87H4.38V6.21H3.09A2.86,2.86,0,0,1,1,5.36,3.2,3.2,0,0,1,0,3.25,3.09,3.09,0,0,1,2.82,0H17.28A10.8,10.8,0,0,1,28,10.86,10.8,10.8,0,0,1,17.28,21.71H10.51v.43h7.87a3.1,3.1,0,0,1,0,6.21H10.51V31.9A3.14,3.14,0,0,1,7.44,35ZM3.07,23.93a1.33,1.33,0,0,0,0,2.65H6.13V31.9a1.29,1.29,0,0,0,.38.91,1.32,1.32,0,0,0,.92.42,1.32,1.32,0,0,0,.92-.42,1.28,1.28,0,0,0,.38-.89V26.58h9.63a1.33,1.33,0,0,0,0-2.65H8.75v-4h8.53a9.14,9.14,0,0,0,9-9.08,9.14,9.14,0,0,0-9-9.08H2.89A1.33,1.33,0,0,0,1.76,3.17a1.39,1.39,0,0,0,.42.91A1.13,1.13,0,0,0,3,4.43H6.13V17.28H3.07a1.14,1.14,0,0,0-.82.35,1.35,1.35,0,0,0,0,1.94,1.13,1.13,0,0,0,.8.35H6.13v4Zm14.21-6.64H8.75V4.43h8.53a6.55,6.55,0,0,1,6.35,6.43A6.55,6.55,0,0,1,17.28,17.28ZM10.51,15.5h6.77a4.74,4.74,0,0,0,4.59-4.65,4.74,4.74,0,0,0-4.59-4.65H10.51Z" fill="#fff"/></svg>