<svg id="Layer_1" data-name="Layer 1" xmlns="http://www.w3.org/2000/svg" width="49" height="50" viewBox="0 0 49 50"><title>ru_up</title><path d="M11.22,29.84h8.39a3.27,3.27,0,1,0,0-6.53H11.22v-.46h7.22A11.43,11.43,0,0,0,18.44,0H3A3.07,3.07,0,0,0,.83,1.11,3.36,3.36,0,0,0,0,3.42,3.35,3.35,0,0,0,1,5.64a3.08,3.08,0,0,0,2.27.9H4.69v9.78H3.31a3.14,3.14,0,0,0-2.2.91,3.28,3.28,0,0,0,0,4.71,3.07,3.07,0,0,0,2.15.91H4.69v.46H3.29a3.27,3.27,0,0,0,0,6.53H4.69v3.71a3.22,3.22,0,0,0,.95,2.28,3.29,3.29,0,0,0,2.32,1,3.29,3.29,0,0,0,2.32-1,3.22,3.22,0,0,0,.95-2.27ZM9.35,28v5.61a1.34,1.34,0,0,1-.41.94A1.41,1.41,0,0,1,8,35a1.41,1.41,0,0,1-1-.44,1.35,1.35,0,0,1-.41-1V28H3.29a1.39,1.39,0,0,1,0-2.79H6.56V21H3.27a1.22,1.22,0,0,1-.85-.37,1.41,1.41,0,0,1,0-2,1.27,1.27,0,0,1,.88-.37H6.56V4.66H3.25a1.2,1.2,0,0,1-.91-.37,1.45,1.45,0,0,1-.45-1,1.47,1.47,0,0,1,.36-1,1.22,1.22,0,0,1,.85-.45H18.44A9.68,9.68,0,0,1,28,11.43,9.68,9.68,0,0,1,18.44,21H9.35v4.2H19.61a1.39,1.39,0,1,1,0,2.79Z" fill="#fff"/><path d="M25.21,11.43a6.94,6.94,0,0,0-6.76-6.76H9.35V18.19h9.09A6.94,6.94,0,0,0,25.21,11.43Zm-14-4.89h7.22a5,5,0,0,1,4.89,4.89,5,5,0,0,1-4.89,4.89H11.22Z" fill="#fff"/><path d="M49,15.05a1.24,1.24,0,0,0,0-.18v0a1.25,1.25,0,0,0-.06-.2h0l0-.06-.08-.14,0-.06-.1-.12,0,0-.17-.14h0L48.24,14l-.07,0-.15,0-.07,0-.23,0H36.07a1.25,1.25,0,0,0,0,2.5h8.49L10.84,47.89a1.25,1.25,0,0,0,1.71,1.82L46.48,18v8.26a1.25,1.25,0,1,0,2.5,0V15.09S49,15.07,49,15.05Z" fill="#fff"/></svg>