<svg id="Layer_1" data-name="Layer 1" xmlns="http://www.w3.org/2000/svg" width="26" height="58" viewBox="0 0 26 58"><title>scroll</title><path d="M17.51,49.23,13,53.74,8.49,49.23a1.35,1.35,0,1,0-1.91,1.91L12,56.61a1.32,1.32,0,0,0,1.91,0l5.47-5.47a1.35,1.35,0,1,0-1.91-1.91Z" fill="#fff"/><path d="M19.42,41.71a1.32,1.32,0,0,0-1.91,0L13,46.22,8.49,41.71a1.35,1.35,0,0,0-1.91,1.91L12,49.09a1.32,1.32,0,0,0,1.91,0l5.47-5.47A1.32,1.32,0,0,0,19.42,41.71Z" fill="#fff"/><path d="M25.3,25.58V13.28a12.3,12.3,0,1,0-24.6,0v12.3a12.3,12.3,0,0,0,24.6,0ZM13,35.15a9.59,9.59,0,0,1-9.57-9.57V13.28a9.57,9.57,0,1,1,19.13,0v12.3A9.59,9.59,0,0,1,13,35.15Z" fill="#fff"/><path d="M13,8.5a1.37,1.37,0,0,0-1.37,1.37V14a1.37,1.37,0,1,0,2.73,0V9.87A1.37,1.37,0,0,0,13,8.5Z" fill="#fff"/></svg>