<?xml version="1.0" encoding="utf-8"?>
<!-- Generator: Adobe Illustrator 21.0.0, SVG Export Plug-In . SVG Version: 6.00 Build 0)  -->
<svg version="1.1" id="Layer_1" xmlns="http://www.w3.org/2000/svg" xmlns:xlink="http://www.w3.org/1999/xlink" x="0px" y="0px"
	 viewBox="0 0 512 512" style="enable-background:new 0 0 512 512;" xml:space="preserve">
<style type="text/css">
	.st0{fill:#517FA6;}
	.st1{fill:#E5E5E5;}
	.st2{fill:#CCCCCC;}
	.st3{fill:#FFFFFF;}
</style>
<g>
	<circle class="st0" cx="256" cy="256" r="256"/>
	<path class="st1" d="M380.3,109.1c-2.5-1.7-5.7-1.9-8.4-0.7l-275.1,128c-4.8,2.3-7.9,7.2-7.8,12.5c0.1,5.2,3.3,9.9,8.1,12
		l253.6,110.5c8.5,3.8,18.4-2.2,19-11.5L384,116.6C384.2,113.6,382.7,110.7,380.3,109.1z"/>
	<polygon class="st2" points="171.6,293.4 188.8,408 379.2,108.4 	"/>
	<path class="st3" d="M371.9,108.4l-275.1,128c-4.7,2.2-7.8,7.1-7.8,12.3c0.1,5.2,3.3,10.1,8.1,12.2l74.6,32.5l207.5-185
		C376.9,107.3,374.2,107.3,371.9,108.4z"/>
	<polygon class="st1" points="211.4,310.7 188.8,408 379.2,108.4 	"/>
	<path class="st3" d="M380.3,109.1c-0.4-0.2-0.7-0.4-1.1-0.6L211.4,310.7l139.3,60.7c8.5,3.8,18.4-2.2,19-11.5L384,116.6
		C384.2,113.6,382.7,110.7,380.3,109.1z"/>
</g>
</svg>
