<svg id="Layer_1" data-name="Layer 1" xmlns="http://www.w3.org/2000/svg" width="57" height="43" viewBox="0 0 57 43"><title>videocard</title><path d="M38.8,21.87a1.79,1.79,0,1,0-.72-1.44A1.79,1.79,0,0,0,38.8,21.87Z" fill="#fff"/><path d="M7.18,34.72H54.72V6.81H7.18Zm23-18.86c1-.59,4.05,1,6.33,2.3-1.2-1.78-2.3-4.19-3.14-5.7-1.75-3.13,2.68-3.69,4.45-3.72s5.63.34,6.62,2c.59,1-1,4.05-2.3,6.33,1.78-1.2,4.19-2.3,5.7-3.14,3.13-1.75,3.69,2.68,3.72,4.45s-.34,5.63-2,6.62c-1,.59-4.05-1-6.33-2.3,1.2,1.78,2.3,4.19,3.14,5.7,1.75,3.13-2.68,3.69-4.45,3.72s-5.63-.34-6.62-2c-.59-1,1-4.05,2.3-6.33-1.78,1.2-4.19,2.3-5.7,3.14-3.13,1.75-3.69-2.68-3.72-4.45S28.54,16.85,30.21,15.87ZM10.33,9.27H21.24v2.31h3a.88.88,0,0,1,0,1.76h-3V17h3a.88.88,0,0,1,0,1.76h-3v3.66h3a.88.88,0,0,1,0,1.76h-3v3.44h3a.88.88,0,1,1,0,1.76h-3v3.4H10.33Z" fill="#fff"/><path d="M55.6,5.05H7.18V.88A.88.88,0,0,0,6.3,0H.88a.88.88,0,0,0,0,1.76H5.42v6.5H2.69a.85.85,0,0,0-.85.85v8.57a.85.85,0,0,0,.85.85H5.42v3.69H2.69a.85.85,0,0,0-.85.85v8.57a.85.85,0,0,0,.85.85H5.42v9.65a.88.88,0,0,0,1.76,0V36.48H21.39v4.83a.85.85,0,0,0,.85.85H50.18a.85.85,0,0,0,.85-.85V36.48H55.6a.88.88,0,0,0,.88-.88V5.93A.88.88,0,0,0,55.6,5.05ZM5.42,23.9H3.54v6.88H5.42v.85H2.69V23.06H5.42Zm0-14H3.54v6.88H5.42v.85H2.69V9.1H5.42ZM50.18,41.32H22.23V36.48h.85v4h2v-4h1.69v4h1.65v-4h1.69v4h1.65v-4h1.69v4H35.1v-4h1.69v4h1.65v-4h1.69v4h1.65v-4h1.69v4h1.65v-4h1.69v4h2.51v-4h.85ZM51,35.6H6.3V5.93H55.6V35.6Z" fill="#fff"/></svg>