<svg id="Layer_1" data-name="Layer 1" xmlns="http://www.w3.org/2000/svg" width="22" height="22" viewBox="0 0 22 22"><title>vk</title><path d="M11,0A11,11,0,1,0,22,11,11,11,0,0,0,11,0Zm6.3,15.82-1.93,0a1.37,1.37,0,0,1-1-.29c-.72-.5-1.4-1.78-1.93-1.61S12,15.27,12,15.27a.63.63,0,0,1-.12.38.73.73,0,0,1-.39.17h-.86A5,5,0,0,1,7,14.19,23.49,23.49,0,0,1,3.56,8.51s-.09-.25,0-.37S4,8,4,8H6.05a.9.9,0,0,1,.33.13.65.65,0,0,1,.18.24A13.85,13.85,0,0,0,7.34,10c.86,1.49,1.26,1.82,1.56,1.66s.3-2.11.3-2.11a2.1,2.1,0,0,0-.21-1,1,1,0,0,0-.64-.32c-.12,0,.07-.29.32-.41a4.68,4.68,0,0,1,1.8-.18,3.71,3.71,0,0,1,1,.1c.71.17.47.84.47,2.43,0,.51-.09,1.23.28,1.46.16.1.54,0,1.51-1.63a12.57,12.57,0,0,0,.8-1.69.61.61,0,0,1,.19-.23A.49.49,0,0,1,15,8h2.17s.65-.08.76.22-.24,1-1.13,2.21c-1.46,1.94-1.62,1.76-.41,2.88A6.45,6.45,0,0,1,17.83,15C18.31,15.76,17.3,15.82,17.3,15.82Z" fill="#4d76a1"/></svg>